<mxfile host="app.diagrams.net" modified="2024-05-23T12:55:55.419Z" agent="Mozilla/5.0 (Macintosh; Intel Mac OS X 10_15_7) AppleWebKit/537.36 (KHTML, like Gecko) Chrome/125.0.0.0 Safari/537.36" etag="WDCdoreN9jlBsoSleYQ1" version="24.4.6" type="google">
  <diagram id="C5RBs43oDa-KdzZeNtuy" name="Page-1">
    <mxGraphModel grid="1" page="1" gridSize="10" guides="1" tooltips="1" connect="1" arrows="1" fold="1" pageScale="1" pageWidth="827" pageHeight="1169" math="0" shadow="0">
      <root>
        <mxCell id="WIyWlLk6GJQsqaUBKTNV-0" />
        <mxCell id="WIyWlLk6GJQsqaUBKTNV-1" parent="WIyWlLk6GJQsqaUBKTNV-0" />
        <mxCell id="zkfFHV4jXpPFQw0GAbJ--0" value="User" style="swimlane;fontStyle=2;align=center;verticalAlign=top;childLayout=stackLayout;horizontal=1;startSize=26;horizontalStack=0;resizeParent=1;resizeLast=0;collapsible=1;marginBottom=0;rounded=0;shadow=0;strokeWidth=1;points=[[0,0,0,0,0],[0,0.25,0,0,0],[0,0.5,0,0,0],[0,0.75,0,0,0],[0,1,0,0,0],[0.25,0,0,0,0],[0.25,1,0,0,0],[0.5,0,0,0,0],[0.5,1,0,0,0],[0.75,0,0,0,0],[0.75,1,0,0,0],[1,0,0,0,0],[1,0.25,0,0,0],[1,0.5,0,0,0],[1,0.75,0,0,0],[1,1,0,0,0]];" vertex="1" parent="WIyWlLk6GJQsqaUBKTNV-1">
          <mxGeometry x="140" y="120" width="160" height="300" as="geometry">
            <mxRectangle x="220" y="120" width="160" height="26" as="alternateBounds" />
          </mxGeometry>
        </mxCell>
        <mxCell id="zkfFHV4jXpPFQw0GAbJ--1" value="id: int (pk)(autoIN)" style="text;align=left;verticalAlign=top;spacingLeft=4;spacingRight=4;overflow=hidden;rotatable=0;points=[[0,0.5],[1,0.5]];portConstraint=eastwest;" vertex="1" parent="zkfFHV4jXpPFQw0GAbJ--0">
          <mxGeometry y="26" width="160" height="26" as="geometry" />
        </mxCell>
        <mxCell id="zkfFHV4jXpPFQw0GAbJ--2" value="Usernanme: VArchar" style="text;align=left;verticalAlign=top;spacingLeft=4;spacingRight=4;overflow=hidden;rotatable=0;points=[[0,0.5],[1,0.5]];portConstraint=eastwest;rounded=0;shadow=0;html=0;" vertex="1" parent="zkfFHV4jXpPFQw0GAbJ--0">
          <mxGeometry y="52" width="160" height="26" as="geometry" />
        </mxCell>
        <mxCell id="zkfFHV4jXpPFQw0GAbJ--3" value="PAssword: VArchar" style="text;align=left;verticalAlign=top;spacingLeft=4;spacingRight=4;overflow=hidden;rotatable=0;points=[[0,0.5],[1,0.5]];portConstraint=eastwest;rounded=0;shadow=0;html=0;" vertex="1" parent="zkfFHV4jXpPFQw0GAbJ--0">
          <mxGeometry y="78" width="160" height="22" as="geometry" />
        </mxCell>
        <mxCell id="zkfFHV4jXpPFQw0GAbJ--5" value="Email: Varchar" style="text;align=left;verticalAlign=top;spacingLeft=4;spacingRight=4;overflow=hidden;rotatable=0;points=[[0,0.5],[1,0.5]];portConstraint=eastwest;" vertex="1" parent="zkfFHV4jXpPFQw0GAbJ--0">
          <mxGeometry y="100" width="160" height="26" as="geometry" />
        </mxCell>
        <mxCell id="nSqPTLnSGLMJ1ip0lByK-1" value="role:enum(guest or admin)" style="text;align=left;verticalAlign=top;spacingLeft=4;spacingRight=4;overflow=hidden;rotatable=0;points=[[0,0.5],[1,0.5]];portConstraint=eastwest;rounded=0;shadow=0;html=0;" vertex="1" parent="zkfFHV4jXpPFQw0GAbJ--0">
          <mxGeometry y="126" width="160" height="22" as="geometry" />
        </mxCell>
        <mxCell id="nSqPTLnSGLMJ1ip0lByK-4" value="" style="line;strokeWidth=1;fillColor=none;align=left;verticalAlign=middle;spacingTop=-1;spacingLeft=3;spacingRight=3;rotatable=0;labelPosition=right;points=[];portConstraint=eastwest;strokeColor=inherit;" vertex="1" parent="zkfFHV4jXpPFQw0GAbJ--0">
          <mxGeometry y="148" width="160" height="8" as="geometry" />
        </mxCell>
        <mxCell id="nSqPTLnSGLMJ1ip0lByK-6" value="&lt;div style=&quot;&quot;&gt;Login()&lt;/div&gt;&lt;div style=&quot;&quot;&gt;&lt;br&gt;&lt;/div&gt;" style="text;strokeColor=none;align=left;fillColor=none;html=1;verticalAlign=middle;whiteSpace=wrap;rounded=0;" vertex="1" parent="zkfFHV4jXpPFQw0GAbJ--0">
          <mxGeometry y="156" width="160" height="30" as="geometry" />
        </mxCell>
        <mxCell id="nSqPTLnSGLMJ1ip0lByK-15" value="&lt;div style=&quot;&quot;&gt;Registration()&lt;/div&gt;&lt;div style=&quot;&quot;&gt;&lt;br&gt;&lt;/div&gt;" style="text;strokeColor=none;align=left;fillColor=none;html=1;verticalAlign=middle;whiteSpace=wrap;rounded=0;" vertex="1" parent="zkfFHV4jXpPFQw0GAbJ--0">
          <mxGeometry y="186" width="160" height="30" as="geometry" />
        </mxCell>
        <mxCell id="nSqPTLnSGLMJ1ip0lByK-25" value="&lt;div style=&quot;&quot;&gt;Logout()&lt;/div&gt;&lt;div style=&quot;&quot;&gt;&lt;br&gt;&lt;/div&gt;" style="text;strokeColor=none;align=left;fillColor=none;html=1;verticalAlign=middle;whiteSpace=wrap;rounded=0;" vertex="1" parent="zkfFHV4jXpPFQw0GAbJ--0">
          <mxGeometry y="216" width="160" height="30" as="geometry" />
        </mxCell>
        <mxCell id="nSqPTLnSGLMJ1ip0lByK-26" value="&lt;div style=&quot;&quot;&gt;Crud operation()&lt;/div&gt;&lt;div style=&quot;&quot;&gt;&lt;br&gt;&lt;/div&gt;" style="text;strokeColor=none;align=left;fillColor=none;html=1;verticalAlign=middle;whiteSpace=wrap;rounded=0;" vertex="1" parent="zkfFHV4jXpPFQw0GAbJ--0">
          <mxGeometry y="246" width="160" height="30" as="geometry" />
        </mxCell>
        <mxCell id="nSqPTLnSGLMJ1ip0lByK-65" value="&lt;div style=&quot;&quot;&gt;&lt;br&gt;&lt;/div&gt;" style="text;strokeColor=none;align=left;fillColor=none;html=1;verticalAlign=middle;whiteSpace=wrap;rounded=0;" vertex="1" parent="zkfFHV4jXpPFQw0GAbJ--0">
          <mxGeometry y="276" width="160" height="4" as="geometry" />
        </mxCell>
        <mxCell id="nSqPTLnSGLMJ1ip0lByK-87" value="" style="edgeStyle=orthogonalEdgeStyle;rounded=0;orthogonalLoop=1;jettySize=auto;html=1;entryX=0.625;entryY=-0.017;entryDx=0;entryDy=0;entryPerimeter=0;" edge="1" parent="WIyWlLk6GJQsqaUBKTNV-1" source="nSqPTLnSGLMJ1ip0lByK-27" target="nSqPTLnSGLMJ1ip0lByK-40">
          <mxGeometry relative="1" as="geometry" />
        </mxCell>
        <mxCell id="nSqPTLnSGLMJ1ip0lByK-27" value="Room" style="swimlane;fontStyle=2;align=center;verticalAlign=top;childLayout=stackLayout;horizontal=1;startSize=26;horizontalStack=0;resizeParent=1;resizeLast=0;collapsible=1;marginBottom=0;rounded=0;shadow=0;strokeWidth=1;" vertex="1" parent="WIyWlLk6GJQsqaUBKTNV-1">
          <mxGeometry x="570" y="120" width="160" height="230" as="geometry">
            <mxRectangle x="220" y="120" width="160" height="26" as="alternateBounds" />
          </mxGeometry>
        </mxCell>
        <mxCell id="nSqPTLnSGLMJ1ip0lByK-28" value="id: int(pk)(autoIN)" style="text;align=left;verticalAlign=top;spacingLeft=4;spacingRight=4;overflow=hidden;rotatable=0;points=[[0,0.5],[1,0.5]];portConstraint=eastwest;" vertex="1" parent="nSqPTLnSGLMJ1ip0lByK-27">
          <mxGeometry y="26" width="160" height="26" as="geometry" />
        </mxCell>
        <mxCell id="nSqPTLnSGLMJ1ip0lByK-29" value="room_number: int" style="text;align=left;verticalAlign=top;spacingLeft=4;spacingRight=4;overflow=hidden;rotatable=0;points=[[0,0.5],[1,0.5]];portConstraint=eastwest;rounded=0;shadow=0;html=0;" vertex="1" parent="nSqPTLnSGLMJ1ip0lByK-27">
          <mxGeometry y="52" width="160" height="26" as="geometry" />
        </mxCell>
        <mxCell id="nSqPTLnSGLMJ1ip0lByK-30" value="type: VArchar" style="text;align=left;verticalAlign=top;spacingLeft=4;spacingRight=4;overflow=hidden;rotatable=0;points=[[0,0.5],[1,0.5]];portConstraint=eastwest;rounded=0;shadow=0;html=0;" vertex="1" parent="nSqPTLnSGLMJ1ip0lByK-27">
          <mxGeometry y="78" width="160" height="22" as="geometry" />
        </mxCell>
        <mxCell id="nSqPTLnSGLMJ1ip0lByK-31" value="price_per_night: float" style="text;align=left;verticalAlign=top;spacingLeft=4;spacingRight=4;overflow=hidden;rotatable=0;points=[[0,0.5],[1,0.5]];portConstraint=eastwest;" vertex="1" parent="nSqPTLnSGLMJ1ip0lByK-27">
          <mxGeometry y="100" width="160" height="26" as="geometry" />
        </mxCell>
        <mxCell id="nSqPTLnSGLMJ1ip0lByK-32" value="availability:boolean" style="text;align=left;verticalAlign=top;spacingLeft=4;spacingRight=4;overflow=hidden;rotatable=0;points=[[0,0.5],[1,0.5]];portConstraint=eastwest;rounded=0;shadow=0;html=0;" vertex="1" parent="nSqPTLnSGLMJ1ip0lByK-27">
          <mxGeometry y="126" width="160" height="22" as="geometry" />
        </mxCell>
        <mxCell id="nSqPTLnSGLMJ1ip0lByK-39" value="image:varchar" style="text;align=left;verticalAlign=top;spacingLeft=4;spacingRight=4;overflow=hidden;rotatable=0;points=[[0,0.5],[1,0.5]];portConstraint=eastwest;rounded=0;shadow=0;html=0;" vertex="1" parent="nSqPTLnSGLMJ1ip0lByK-27">
          <mxGeometry y="148" width="160" height="22" as="geometry" />
        </mxCell>
        <mxCell id="nSqPTLnSGLMJ1ip0lByK-33" value="" style="line;strokeWidth=1;fillColor=none;align=left;verticalAlign=middle;spacingTop=-1;spacingLeft=3;spacingRight=3;rotatable=0;labelPosition=right;points=[];portConstraint=eastwest;strokeColor=inherit;" vertex="1" parent="nSqPTLnSGLMJ1ip0lByK-27">
          <mxGeometry y="170" width="160" height="8" as="geometry" />
        </mxCell>
        <mxCell id="nSqPTLnSGLMJ1ip0lByK-34" value="&lt;div style=&quot;&quot;&gt;Crud Operation()&lt;/div&gt;&lt;div style=&quot;&quot;&gt;&lt;br&gt;&lt;/div&gt;" style="text;strokeColor=none;align=left;fillColor=none;html=1;verticalAlign=middle;whiteSpace=wrap;rounded=0;" vertex="1" parent="nSqPTLnSGLMJ1ip0lByK-27">
          <mxGeometry y="178" width="160" height="30" as="geometry" />
        </mxCell>
        <mxCell id="nSqPTLnSGLMJ1ip0lByK-75" value="" style="edgeStyle=orthogonalEdgeStyle;rounded=0;orthogonalLoop=1;jettySize=auto;html=1;" edge="1" parent="WIyWlLk6GJQsqaUBKTNV-1" source="nSqPTLnSGLMJ1ip0lByK-40">
          <mxGeometry relative="1" as="geometry">
            <mxPoint x="280" y="420" as="targetPoint" />
            <Array as="points">
              <mxPoint x="281" y="815" />
            </Array>
          </mxGeometry>
        </mxCell>
        <mxCell id="nSqPTLnSGLMJ1ip0lByK-40" value="Reservation" style="swimlane;fontStyle=2;align=center;verticalAlign=top;childLayout=stackLayout;horizontal=1;startSize=26;horizontalStack=0;resizeParent=1;resizeLast=0;collapsible=1;marginBottom=0;rounded=0;shadow=0;strokeWidth=1;" vertex="1" parent="WIyWlLk6GJQsqaUBKTNV-1">
          <mxGeometry x="340" y="700" width="160" height="230" as="geometry">
            <mxRectangle x="220" y="120" width="160" height="26" as="alternateBounds" />
          </mxGeometry>
        </mxCell>
        <mxCell id="nSqPTLnSGLMJ1ip0lByK-41" value="id: int(pk)(autoIN)" style="text;align=left;verticalAlign=top;spacingLeft=4;spacingRight=4;overflow=hidden;rotatable=0;points=[[0,0.5],[1,0.5]];portConstraint=eastwest;" vertex="1" parent="nSqPTLnSGLMJ1ip0lByK-40">
          <mxGeometry y="26" width="160" height="26" as="geometry" />
        </mxCell>
        <mxCell id="nSqPTLnSGLMJ1ip0lByK-42" value="user_id: int (fk)" style="text;align=left;verticalAlign=top;spacingLeft=4;spacingRight=4;overflow=hidden;rotatable=0;points=[[0,0.5],[1,0.5]];portConstraint=eastwest;rounded=0;shadow=0;html=0;" vertex="1" parent="nSqPTLnSGLMJ1ip0lByK-40">
          <mxGeometry y="52" width="160" height="26" as="geometry" />
        </mxCell>
        <mxCell id="nSqPTLnSGLMJ1ip0lByK-43" value="room_id: int(fk)" style="text;align=left;verticalAlign=top;spacingLeft=4;spacingRight=4;overflow=hidden;rotatable=0;points=[[0,0.5],[1,0.5]];portConstraint=eastwest;rounded=0;shadow=0;html=0;" vertex="1" parent="nSqPTLnSGLMJ1ip0lByK-40">
          <mxGeometry y="78" width="160" height="22" as="geometry" />
        </mxCell>
        <mxCell id="nSqPTLnSGLMJ1ip0lByK-44" value="check_in_date: datetime" style="text;align=left;verticalAlign=top;spacingLeft=4;spacingRight=4;overflow=hidden;rotatable=0;points=[[0,0.5],[1,0.5]];portConstraint=eastwest;" vertex="1" parent="nSqPTLnSGLMJ1ip0lByK-40">
          <mxGeometry y="100" width="160" height="26" as="geometry" />
        </mxCell>
        <mxCell id="nSqPTLnSGLMJ1ip0lByK-45" value="check_out_date:datetime" style="text;align=left;verticalAlign=top;spacingLeft=4;spacingRight=4;overflow=hidden;rotatable=0;points=[[0,0.5],[1,0.5]];portConstraint=eastwest;rounded=0;shadow=0;html=0;" vertex="1" parent="nSqPTLnSGLMJ1ip0lByK-40">
          <mxGeometry y="126" width="160" height="22" as="geometry" />
        </mxCell>
        <mxCell id="nSqPTLnSGLMJ1ip0lByK-46" value="status:varchar" style="text;align=left;verticalAlign=top;spacingLeft=4;spacingRight=4;overflow=hidden;rotatable=0;points=[[0,0.5],[1,0.5]];portConstraint=eastwest;rounded=0;shadow=0;html=0;" vertex="1" parent="nSqPTLnSGLMJ1ip0lByK-40">
          <mxGeometry y="148" width="160" height="22" as="geometry" />
        </mxCell>
        <mxCell id="nSqPTLnSGLMJ1ip0lByK-49" value="total_amount:float" style="text;align=left;verticalAlign=top;spacingLeft=4;spacingRight=4;overflow=hidden;rotatable=0;points=[[0,0.5],[1,0.5]];portConstraint=eastwest;rounded=0;shadow=0;html=0;" vertex="1" parent="nSqPTLnSGLMJ1ip0lByK-40">
          <mxGeometry y="170" width="160" height="22" as="geometry" />
        </mxCell>
        <mxCell id="nSqPTLnSGLMJ1ip0lByK-47" value="" style="line;strokeWidth=1;fillColor=none;align=left;verticalAlign=middle;spacingTop=-1;spacingLeft=3;spacingRight=3;rotatable=0;labelPosition=right;points=[];portConstraint=eastwest;strokeColor=inherit;" vertex="1" parent="nSqPTLnSGLMJ1ip0lByK-40">
          <mxGeometry y="192" width="160" height="8" as="geometry" />
        </mxCell>
        <mxCell id="nSqPTLnSGLMJ1ip0lByK-103" value="" style="edgeStyle=orthogonalEdgeStyle;rounded=0;orthogonalLoop=1;jettySize=auto;html=1;entryX=1;entryY=0.5;entryDx=0;entryDy=0;" edge="1" parent="WIyWlLk6GJQsqaUBKTNV-1" source="nSqPTLnSGLMJ1ip0lByK-50" target="nSqPTLnSGLMJ1ip0lByK-43">
          <mxGeometry relative="1" as="geometry">
            <mxPoint x="700" y="790" as="targetPoint" />
          </mxGeometry>
        </mxCell>
        <mxCell id="nSqPTLnSGLMJ1ip0lByK-50" value="Payment" style="swimlane;fontStyle=2;align=center;verticalAlign=top;childLayout=stackLayout;horizontal=1;startSize=26;horizontalStack=0;resizeParent=1;resizeLast=0;collapsible=1;marginBottom=0;rounded=0;shadow=0;strokeWidth=1;" vertex="1" parent="WIyWlLk6GJQsqaUBKTNV-1">
          <mxGeometry x="667" y="440" width="160" height="280" as="geometry">
            <mxRectangle x="220" y="120" width="160" height="26" as="alternateBounds" />
          </mxGeometry>
        </mxCell>
        <mxCell id="nSqPTLnSGLMJ1ip0lByK-51" value="id: int (pk)(autoIN)" style="text;align=left;verticalAlign=top;spacingLeft=4;spacingRight=4;overflow=hidden;rotatable=0;points=[[0,0.5],[1,0.5]];portConstraint=eastwest;" vertex="1" parent="nSqPTLnSGLMJ1ip0lByK-50">
          <mxGeometry y="26" width="160" height="26" as="geometry" />
        </mxCell>
        <mxCell id="nSqPTLnSGLMJ1ip0lByK-52" value="reservation_id: int(fk reservation)" style="text;align=left;verticalAlign=top;spacingLeft=4;spacingRight=4;overflow=hidden;rotatable=0;points=[[0,0.5],[1,0.5]];portConstraint=eastwest;rounded=0;shadow=0;html=0;" vertex="1" parent="nSqPTLnSGLMJ1ip0lByK-50">
          <mxGeometry y="52" width="160" height="26" as="geometry" />
        </mxCell>
        <mxCell id="nSqPTLnSGLMJ1ip0lByK-53" value="amount:float" style="text;align=left;verticalAlign=top;spacingLeft=4;spacingRight=4;overflow=hidden;rotatable=0;points=[[0,0.5],[1,0.5]];portConstraint=eastwest;rounded=0;shadow=0;html=0;" vertex="1" parent="nSqPTLnSGLMJ1ip0lByK-50">
          <mxGeometry y="78" width="160" height="22" as="geometry" />
        </mxCell>
        <mxCell id="nSqPTLnSGLMJ1ip0lByK-54" value="payment_date: datetime" style="text;align=left;verticalAlign=top;spacingLeft=4;spacingRight=4;overflow=hidden;rotatable=0;points=[[0,0.5],[1,0.5]];portConstraint=eastwest;" vertex="1" parent="nSqPTLnSGLMJ1ip0lByK-50">
          <mxGeometry y="100" width="160" height="26" as="geometry" />
        </mxCell>
        <mxCell id="nSqPTLnSGLMJ1ip0lByK-55" value="payement_status:enum(guest or admin)" style="text;align=left;verticalAlign=top;spacingLeft=4;spacingRight=4;overflow=hidden;rotatable=0;points=[[0,0.5],[1,0.5]];portConstraint=eastwest;rounded=0;shadow=0;html=0;" vertex="1" parent="nSqPTLnSGLMJ1ip0lByK-50">
          <mxGeometry y="126" width="160" height="22" as="geometry" />
        </mxCell>
        <mxCell id="nSqPTLnSGLMJ1ip0lByK-56" value="" style="line;strokeWidth=1;fillColor=none;align=left;verticalAlign=middle;spacingTop=-1;spacingLeft=3;spacingRight=3;rotatable=0;labelPosition=right;points=[];portConstraint=eastwest;strokeColor=inherit;" vertex="1" parent="nSqPTLnSGLMJ1ip0lByK-50">
          <mxGeometry y="148" width="160" height="8" as="geometry" />
        </mxCell>
        <mxCell id="nSqPTLnSGLMJ1ip0lByK-57" value="&lt;div style=&quot;&quot;&gt;Login()&lt;/div&gt;&lt;div style=&quot;&quot;&gt;&lt;br&gt;&lt;/div&gt;" style="text;strokeColor=none;align=left;fillColor=none;html=1;verticalAlign=middle;whiteSpace=wrap;rounded=0;" vertex="1" parent="nSqPTLnSGLMJ1ip0lByK-50">
          <mxGeometry y="156" width="160" height="30" as="geometry" />
        </mxCell>
        <mxCell id="nSqPTLnSGLMJ1ip0lByK-58" value="&lt;div style=&quot;&quot;&gt;Registration()&lt;/div&gt;&lt;div style=&quot;&quot;&gt;&lt;br&gt;&lt;/div&gt;" style="text;strokeColor=none;align=left;fillColor=none;html=1;verticalAlign=middle;whiteSpace=wrap;rounded=0;" vertex="1" parent="nSqPTLnSGLMJ1ip0lByK-50">
          <mxGeometry y="186" width="160" height="30" as="geometry" />
        </mxCell>
        <mxCell id="nSqPTLnSGLMJ1ip0lByK-59" value="&lt;div style=&quot;&quot;&gt;Logout()&lt;/div&gt;&lt;div style=&quot;&quot;&gt;&lt;br&gt;&lt;/div&gt;" style="text;strokeColor=none;align=left;fillColor=none;html=1;verticalAlign=middle;whiteSpace=wrap;rounded=0;" vertex="1" parent="nSqPTLnSGLMJ1ip0lByK-50">
          <mxGeometry y="216" width="160" height="30" as="geometry" />
        </mxCell>
        <mxCell id="nSqPTLnSGLMJ1ip0lByK-60" value="&lt;div style=&quot;&quot;&gt;Crud operation()&lt;/div&gt;&lt;div style=&quot;&quot;&gt;&lt;br&gt;&lt;/div&gt;" style="text;strokeColor=none;align=left;fillColor=none;html=1;verticalAlign=middle;whiteSpace=wrap;rounded=0;" vertex="1" parent="nSqPTLnSGLMJ1ip0lByK-50">
          <mxGeometry y="246" width="160" height="30" as="geometry" />
        </mxCell>
        <mxCell id="nSqPTLnSGLMJ1ip0lByK-76" value="1" style="text;strokeColor=none;align=center;fillColor=none;html=1;verticalAlign=middle;whiteSpace=wrap;rounded=0;" vertex="1" parent="WIyWlLk6GJQsqaUBKTNV-1">
          <mxGeometry x="230" y="430" width="60" height="30" as="geometry" />
        </mxCell>
        <mxCell id="nSqPTLnSGLMJ1ip0lByK-77" value="N" style="text;strokeColor=none;align=center;fillColor=none;html=1;verticalAlign=middle;whiteSpace=wrap;rounded=0;" vertex="1" parent="WIyWlLk6GJQsqaUBKTNV-1">
          <mxGeometry x="280" y="790" width="60" height="30" as="geometry" />
        </mxCell>
        <mxCell id="nSqPTLnSGLMJ1ip0lByK-89" value="1" style="text;strokeColor=none;align=center;fillColor=none;html=1;verticalAlign=middle;whiteSpace=wrap;rounded=0;" vertex="1" parent="WIyWlLk6GJQsqaUBKTNV-1">
          <mxGeometry x="500" y="210" width="60" height="30" as="geometry" />
        </mxCell>
        <mxCell id="nSqPTLnSGLMJ1ip0lByK-90" value="N" style="text;strokeColor=none;align=center;fillColor=none;html=1;verticalAlign=middle;whiteSpace=wrap;rounded=0;" vertex="1" parent="WIyWlLk6GJQsqaUBKTNV-1">
          <mxGeometry x="384" y="660" width="60" height="30" as="geometry" />
        </mxCell>
        <mxCell id="nSqPTLnSGLMJ1ip0lByK-105" value="1" style="text;strokeColor=none;align=center;fillColor=none;html=1;verticalAlign=middle;whiteSpace=wrap;rounded=0;" vertex="1" parent="WIyWlLk6GJQsqaUBKTNV-1">
          <mxGeometry x="490" y="770" width="60" height="30" as="geometry" />
        </mxCell>
        <mxCell id="nSqPTLnSGLMJ1ip0lByK-106" value="1" style="text;strokeColor=none;align=center;fillColor=none;html=1;verticalAlign=middle;whiteSpace=wrap;rounded=0;" vertex="1" parent="WIyWlLk6GJQsqaUBKTNV-1">
          <mxGeometry x="690" y="730" width="60" height="30" as="geometry" />
        </mxCell>
      </root>
    </mxGraphModel>
  </diagram>
</mxfile>
